<svg id="Layer_1" data-name="Layer 1" xmlns="http://www.w3.org/2000/svg" viewBox="0 0 64 64"><title>price tag</title><path d="M48.07,8.58a2,2,0,0,0-.22-3,2.11,2.11,0,0,0-2.72.3L37,14a1,1,0,0,1-1.32.09l-2.29-1.71a3.46,3.46,0,0,0-4.16,0l-10.69,8a8,8,0,0,0-3.2,6.4v24a8,8,0,0,0,8,8h16a8,8,0,0,0,8-8v-24a8,8,0,0,0-3.21-6.41l-3.71-2.78a.88.88,0,0,1-.1-1.33ZM25.5,21.41a6,6,0,0,1,4.43-4.51,6.15,6.15,0,0,1,3.05,0,.5.5,0,0,1,.22.84L30,21a2.07,2.07,0,0,0-.29,2.65,2,2,0,0,0,3,.26l3.44-3.44a.51.51,0,0,1,.83.18,6,6,0,1,1-11.54.79Zm4.79,20.42h2.4a2,2,0,0,1,.4,0,5.38,5.38,0,0,1,5,5.35v.87a5.38,5.38,0,0,1-4.59,5.31v.42a2,2,0,1,1-4,0v-.42a5.38,5.38,0,0,1-4.59-5.31,2,2,0,1,1,4,0,1.39,1.39,0,0,0,1.39,1.39h2.4a1.39,1.39,0,0,0,1.39-1.39v-.87a1.41,1.41,0,0,0-1.39-1.39h-2.4a2,2,0,0,1-.4,0,5.38,5.38,0,0,1-5-5.35v-.87a5.38,5.38,0,0,1,4.59-5.31v-.42a2,2,0,1,1,4,0v.42a5.38,5.38,0,0,1,4.59,5.31,2,2,0,1,1-4,0,1.41,1.41,0,0,0-1.39-1.39h-2.4a1.41,1.41,0,0,0-1.39,1.39v.87A1.39,1.39,0,0,0,30.28,41.83Z"/></svg>